<svg width="1440" height="1024" viewBox="0 0 1440 1024" fill="none" xmlns="http://www.w3.org/2000/svg">
<rect width="1440" height="1024" fill="white"/>
<path d="M716.912 557.265H633.508" stroke="black" stroke-width="15" stroke-linecap="round" stroke-linejoin="round"/>
<path d="M701.57 533.265H648.698" stroke="black" stroke-width="15" stroke-linecap="round" stroke-linejoin="round"/>
<path d="M687.545 508.266H662.622" stroke="black" stroke-width="15" stroke-linecap="round" stroke-linejoin="round"/>
<path d="M678.052 478.975L719.76 406.735" stroke="black" stroke-width="15" stroke-linecap="round" stroke-linejoin="round"/>
<path d="M707.102 476.646L733.545 430.861" stroke="black" stroke-width="15" stroke-linecap="round" stroke-linejoin="round"/>
<path d="M735.254 477.886L747.722 456.304" stroke="black" stroke-width="15" stroke-linecap="round" stroke-linejoin="round"/>
<path d="M765.292 484.468L807 556.696" stroke="black" stroke-width="15" stroke-linecap="round" stroke-linejoin="round"/>
<path d="M752.773 510.785L779.215 556.569" stroke="black" stroke-width="15" stroke-linecap="round" stroke-linejoin="round"/>
<path d="M737.621 534.544L750.089 556.126" stroke="black" stroke-width="15" stroke-linecap="round" stroke-linejoin="round"/>
<path d="M500.256 634.624C501.856 634.624 503.445 634.816 505.024 635.2V644.416C502.912 643.925 500.757 643.68 498.56 643.68C496.384 643.68 494.443 644.139 492.736 645.056C491.029 645.973 489.685 647.381 488.704 649.28C487.744 651.157 487.264 653.493 487.264 656.288V672H476.576V647.552L474.272 635.616H485.088L486.72 645.44C487.893 642.069 489.6 639.424 491.84 637.504C494.08 635.584 496.885 634.624 500.256 634.624ZM518.288 657.152C519.098 659.627 520.677 661.536 523.024 662.88C525.37 664.224 528.346 664.896 531.952 664.896C534.704 664.896 537.466 664.501 540.24 663.712C543.013 662.923 545.498 661.813 547.696 660.384V667.552C545.285 669.259 542.48 670.592 539.28 671.552C536.101 672.491 532.773 672.96 529.296 672.96C524.986 672.96 521.125 672.16 517.712 670.56C514.298 668.939 511.632 666.677 509.712 663.776C507.792 660.853 506.832 657.493 506.832 653.696C506.832 649.963 507.749 646.656 509.584 643.776C511.418 640.875 513.968 638.624 517.232 637.024C520.496 635.424 524.186 634.624 528.304 634.624C532.442 634.624 536.048 635.552 539.12 637.408C542.192 639.243 544.549 641.867 546.192 645.28C547.856 648.672 548.688 652.629 548.688 657.152H518.288ZM528.368 642.496C525.658 642.496 523.386 643.179 521.552 644.544C519.738 645.888 518.544 647.723 517.968 650.048H538.288C537.669 647.637 536.496 645.781 534.768 644.48C533.061 643.157 530.928 642.496 528.368 642.496ZM587.291 635.616H597.979V662.304C597.979 666.784 596.976 670.613 594.971 673.792C592.987 676.992 590.192 679.413 586.587 681.056C582.982 682.699 578.8 683.52 574.043 683.52C570.779 683.52 567.739 683.093 564.923 682.24C562.107 681.408 559.334 680.107 556.603 678.336V669.952C561.467 673.664 567.056 675.52 573.371 675.52C577.915 675.52 581.371 674.464 583.739 672.352C586.107 670.261 587.291 667.125 587.291 662.944V660.96C585.392 663.243 583.024 665.099 580.187 666.528C577.35 667.957 574.203 668.672 570.747 668.672C567.398 668.672 564.368 667.968 561.659 666.56C558.971 665.131 556.859 663.125 555.323 660.544C553.787 657.963 553.019 654.997 553.019 651.648C553.019 648.299 553.787 645.333 555.323 642.752C556.859 640.171 558.971 638.176 561.659 636.768C564.368 635.339 567.398 634.624 570.747 634.624C574.203 634.624 577.339 635.371 580.155 636.864C582.992 638.336 585.371 640.256 587.291 642.624V635.616ZM574.235 661.152C579.91 661.152 584.39 657.984 587.675 651.648C584.39 645.291 579.91 642.112 574.235 642.112C572.08 642.112 570.214 642.507 568.635 643.296C567.078 644.085 565.883 645.205 565.051 646.656C564.219 648.085 563.803 649.749 563.803 651.648C563.803 653.547 564.208 655.211 565.019 656.64C565.851 658.069 567.046 659.179 568.603 659.968C570.182 660.757 572.059 661.152 574.235 661.152ZM615.413 657.152C616.223 659.627 617.802 661.536 620.149 662.88C622.495 664.224 625.471 664.896 629.077 664.896C631.829 664.896 634.591 664.501 637.365 663.712C640.138 662.923 642.623 661.813 644.821 660.384V667.552C642.41 669.259 639.605 670.592 636.405 671.552C633.226 672.491 629.898 672.96 626.421 672.96C622.111 672.96 618.25 672.16 614.837 670.56C611.423 668.939 608.757 666.677 606.837 663.776C604.917 660.853 603.957 657.493 603.957 653.696C603.957 649.963 604.874 646.656 606.709 643.776C608.543 640.875 611.093 638.624 614.357 637.024C617.621 635.424 621.311 634.624 625.429 634.624C629.567 634.624 633.173 635.552 636.245 637.408C639.317 639.243 641.674 641.867 643.317 645.28C644.981 648.672 645.813 652.629 645.813 657.152H615.413ZM625.493 642.496C622.783 642.496 620.511 643.179 618.677 644.544C616.863 645.888 615.669 647.723 615.093 650.048H635.413C634.794 647.637 633.621 645.781 631.893 644.48C630.186 643.157 628.053 642.496 625.493 642.496ZM677.059 634.624C680.494 634.624 683.427 635.317 685.859 636.704C688.312 638.069 690.179 640.043 691.459 642.624C692.739 645.184 693.379 648.224 693.379 651.744V672H682.691V653.376C682.691 650.133 681.891 647.659 680.291 645.952C678.712 644.245 676.43 643.392 673.443 643.392C671.352 643.392 669.528 643.851 667.971 644.768C666.435 645.664 665.24 646.944 664.387 648.608C663.555 650.251 663.139 652.171 663.139 654.368V672H652.451V647.84L650.147 635.616H660.867L662.211 643.776C663.726 640.832 665.774 638.571 668.355 636.992C670.958 635.413 673.859 634.624 677.059 634.624ZM725.483 634.624C728.896 634.624 731.83 635.317 734.283 636.704C736.736 638.069 738.603 640.043 739.883 642.624C741.184 645.184 741.835 648.224 741.835 651.744V672H731.115V653.376C731.115 650.133 730.315 647.659 728.715 645.952C727.136 644.245 724.854 643.392 721.867 643.392C719.798 643.392 717.984 643.851 716.427 644.768C714.891 645.664 713.696 646.944 712.843 648.608C712.011 650.251 711.595 652.171 711.595 654.368V672H700.875V622.72H711.595V642.112C713.195 639.68 715.19 637.824 717.579 636.544C719.968 635.264 722.603 634.624 725.483 634.624ZM791.327 672H780.639L779.327 663.904C777.812 666.805 775.796 669.045 773.279 670.624C770.762 672.181 767.946 672.96 764.831 672.96C761.503 672.96 758.644 672.277 756.255 670.912C753.866 669.525 752.042 667.552 750.783 664.992C749.524 662.411 748.895 659.36 748.895 655.84V635.616H759.583V654.272C759.583 657.493 760.34 659.957 761.855 661.664C763.391 663.349 765.588 664.192 768.447 664.192C770.495 664.192 772.266 663.755 773.759 662.88C775.252 661.984 776.394 660.715 777.183 659.072C777.994 657.408 778.399 655.456 778.399 653.216V635.616H789.087V659.808L791.327 672ZM824.472 634.624C827.992 634.624 831.117 635.424 833.848 637.024C836.6 638.624 838.733 640.885 840.248 643.808C841.784 646.709 842.552 650.048 842.552 653.824C842.552 657.579 841.784 660.907 840.248 663.808C838.733 666.709 836.6 668.96 833.848 670.56C831.117 672.16 827.992 672.96 824.472 672.96C821.101 672.96 818.04 672.171 815.288 670.592C812.536 668.992 810.242 666.741 808.408 663.84V672H797.688V622.72H808.408V643.648C810.242 640.768 812.536 638.549 815.288 636.992C818.04 635.413 821.101 634.624 824.472 634.624ZM821.496 664.64C823.458 664.64 825.218 664.181 826.776 663.264C828.333 662.347 829.549 661.067 830.424 659.424C831.298 657.781 831.736 655.915 831.736 653.824C831.736 651.733 831.298 649.867 830.424 648.224C829.549 646.56 828.333 645.269 826.776 644.352C825.218 643.413 823.458 642.944 821.496 642.944C819.512 642.944 817.624 643.413 815.832 644.352C814.061 645.269 812.493 646.549 811.128 648.192C809.762 649.835 808.696 651.712 807.928 653.824C808.696 655.936 809.762 657.813 811.128 659.456C812.493 661.077 814.061 662.347 815.832 663.264C817.624 664.181 819.512 664.64 821.496 664.64ZM853.178 672.576C852.005 672.576 850.938 672.299 849.978 671.744C849.018 671.189 848.261 670.432 847.706 669.472C847.151 668.512 846.874 667.445 846.874 666.272C846.874 665.12 847.151 664.064 847.706 663.104C848.261 662.123 849.018 661.355 849.978 660.8C850.938 660.245 852.005 659.968 853.178 659.968C854.351 659.968 855.418 660.245 856.378 660.8C857.338 661.355 858.095 662.123 858.65 663.104C859.205 664.064 859.482 665.12 859.482 666.272C859.482 667.445 859.205 668.512 858.65 669.472C858.095 670.432 857.338 671.189 856.378 671.744C855.418 672.299 854.351 672.576 853.178 672.576ZM890.669 653.312L906.445 672H894.253L883.821 659.616L873.485 672H861.549L877.101 653.408L862.541 635.616H874.573L884.109 647.072L893.645 635.616H905.421L890.669 653.312ZM941.941 635.616H953.301L935.157 673.632C933.535 677.088 931.434 679.595 928.853 681.152C926.271 682.731 923.381 683.52 920.181 683.52C917.813 683.52 915.669 683.232 913.749 682.656C911.829 682.08 909.994 681.195 908.245 680V672.288C910.101 673.461 911.829 674.293 913.429 674.784C915.029 675.296 916.799 675.552 918.741 675.552C920.597 675.552 922.186 675.136 923.509 674.304C924.853 673.493 925.941 672.128 926.773 670.208L926.997 669.728H922.485L906.389 635.616H918.165L929.973 662.912L941.941 635.616ZM993.416 643.168L968.936 664.096H993.544V672H955.4V664.448L979.944 643.488H955.624V635.616H993.416V643.168Z" fill="black"/>
</svg>
